<?xml version="1.0"?>
<svg width="1024" height="1024" xmlns="http://www.w3.org/2000/svg" xmlns:svg="http://www.w3.org/2000/svg" version="1.1">
 <g class="layer">
  <title>Layer 1</title>
  <path d="m506.69,9.9c33.81,-1.38 60.19,9.92 88.5,25.13c2.76,1.47 2.76,1.47 5.59,2.98c10.3,5.5 20.55,11.03 30.77,16.61c14.01,7.62 28.13,15.08 42.27,22.5c2.44,1.28 4.89,2.58 7.4,3.91c5,2.62 9.98,5.25 14.98,7.87c63.97,33.6 63.97,33.6 90.42,47.86c13.53,7.27 27.09,14.51 40.64,21.74c2.29,1.22 4.59,2.44 6.97,3.7c13.92,7.42 27.85,14.84 41.82,22.25c6.77,3.6 13.51,7.21 20.27,10.83c8.96,4.77 17.97,9.51 26.99,14.18c41.02,21.41 71.73,43.12 85.96,85.94c2.17,9.69 2.58,19.13 2.58,29.01c0,2.46 0,2.46 0,4.96c0.02,5.48 0.05,10.95 0.05,16.43c0,3.93 0.02,7.85 0.02,11.8c0.02,10.66 0.05,21.32 0.07,32.01c0,6.65 0,13.33 0.02,20c0.02,20.91 0.05,41.8 0.05,62.71c0.02,24.07 0.07,48.17 0.14,72.24c0.05,18.66 0.07,37.3 0.07,55.94c0,11.12 0.02,22.25 0.05,33.37c0.05,10.48 0.05,20.93 0.02,31.41c0,3.82 0.02,7.67 0.05,11.49c0.2,37.65 -5.75,70.98 -35.75,99.14c-17.13,14.9 -37.65,25.75 -58.04,36.45c-5.82,3.04 -11.61,6.12 -17.4,9.2c-2.92,1.55 -5.84,3.1 -8.73,4.63c-11.77,6.24 -23.44,12.58 -35.07,18.99c-17.49,9.63 -35.03,19.16 -52.61,28.66c-1.31,0.72 -2.6,1.43 -3.96,2.15c-19.26,10.41 -38.51,20.81 -57.79,31.2c-16.25,8.76 -32.47,17.54 -48.69,26.33c-3.85,2.07 -3.85,2.07 -7.74,4.19c-13.12,7.09 -26.23,14.18 -39.3,21.3c-23.94,13 -47.93,25.97 -72.05,38.68c-1.9,1.03 -3.82,2.05 -5.79,3.1c-14.87,7.77 -27.15,12.23 -44.55,12.52c-2.67,0.08 -5.36,0.17 -8.12,0.25c-10.07,-1.53 -12.74,-4.09 -18.87,-11.47c-1.65,-6.65 -1.52,-13.14 -1.4,-19.92c-0.02,-1.98 -0.02,-3.99 -0.05,-6.03c-0.02,-6.59 0.05,-13.16 0.09,-19.75c0,-4.59 0,-9.17 0,-13.76c0,-9.59 0.05,-19.2 0.11,-28.81c0.09,-12.29 0.11,-24.59 0.09,-36.88c0,-9.46 0.02,-18.93 0.07,-28.41c0,-4.53 0.02,-9.05 0.02,-13.6c0,-6.34 0.05,-12.69 0.11,-19.03c-0.02,-1.86 -0.02,-3.72 -0.02,-5.64c0.2,-14.46 3.39,-25.93 14.41,-36.88c1.4,-1.38 2.78,-2.77 4.21,-4.17c9.3,-8.86 18.67,-17.63 28.15,-26.28c3.6,-3.29 7.17,-6.59 10.75,-9.9c2.26,-2.09 4.55,-4.17 6.86,-6.26c2.04,-1.9 4.1,-3.78 6.22,-5.72c5.05,-4.09 5.05,-4.09 9.57,-4.09c0.61,-1.24 1.22,-2.48 1.86,-3.74c2.62,-4.48 5.18,-7.31 9.16,-10.85c1.31,-1.16 2.6,-2.33 3.96,-3.55c2.1,-1.86 2.1,-1.86 4.25,-3.76c2.96,-2.67 5.93,-5.33 8.89,-8c4.68,-4.17 9.37,-8.35 14.05,-12.52c4.53,-4.03 9.03,-8.1 13.53,-12.15c2.13,-1.86 2.13,-1.86 4.28,-3.76c1.31,-1.18 2.6,-2.36 3.94,-3.55c1.15,-1.03 2.31,-2.05 3.48,-3.1c5.39,-6.34 5.29,-13.35 5.43,-21.14c0.02,-1.9 0.07,-3.8 0.11,-5.77c0.09,-8.66 0.18,-17.34 0.25,-26.02c0.02,-4.57 0.09,-9.13 0.18,-13.7c0.11,-6.61 0.16,-13.2 0.2,-19.82c0.05,-2.03 0.09,-4.07 0.16,-6.16c-0.05,-9.38 -0.11,-15.91 -6.88,-23.29c-1.9,-1.69 -3.82,-3.37 -5.77,-5.1c-6.56,-9.79 -4.86,-20.21 -2.26,-31c6.49,-11.86 15.66,-18.56 29.42,-22.73c14.28,-1.12 24.42,0.5 36.2,8.27c9.28,8.1 13.12,16.72 13.87,28.35c-0.68,10.41 -4.55,18.41 -11.77,26.41c-4.37,3.1 -4.37,3.1 -8.89,3.1c0,1.34 0.02,2.71 0.05,4.11c0.2,14.18 0.34,28.35 0.45,42.53c0.05,5.29 0.09,10.58 0.18,15.87c0.11,7.6 0.16,15.23 0.2,22.83c0.05,2.36 0.09,4.69 0.14,7.11c0,17.03 -3.12,29.45 -14.57,43.06c-1.54,1.36 -3.05,2.75 -4.64,4.15c-1.7,1.53 -3.37,3.06 -5.11,4.63c-1.74,1.53 -3.48,3.04 -5.27,4.61c-2.62,2.38 -2.62,2.38 -5.32,4.81c-12.97,11.59 -12.97,11.59 -18.15,11.59c-0.57,1.18 -1.15,2.38 -1.72,3.62c-3.19,5.27 -6.79,8.64 -11.56,12.81c-1.81,1.57 -3.6,3.16 -5.45,4.79c-1.95,1.69 -3.89,3.39 -5.88,5.12c-4.1,3.64 -8.19,7.27 -12.26,10.91c-6.45,5.72 -12.9,11.43 -19.39,17.09c-6.29,5.48 -12.49,11.01 -18.69,16.55c-1.95,1.67 -3.89,3.33 -5.88,5.04c-13.06,11.82 -17.74,20.95 -18.71,37.71c-0.18,2.62 -0.18,2.62 -0.34,5.31c-0.18,5.31 -0.18,10.58 -0.11,15.89c0,1.88 0.02,3.78 0.02,5.74c0.02,5.95 0.07,11.9 0.14,17.85c0.02,4.09 0.05,8.16 0.07,12.23c0.05,9.92 0.11,19.84 0.23,29.76c21.52,-11.2 42.97,-22.52 64.33,-33.97c1.45,-0.76 2.9,-1.55 4.37,-2.33c17.76,-9.51 35.46,-19.09 53.08,-28.81c13.92,-7.62 27.97,-15.08 41.97,-22.59c1.45,-0.79 2.9,-1.55 4.39,-2.36c7.08,-3.78 14.16,-7.56 21.25,-11.36c31.75,-16.96 63.4,-34.03 95.01,-51.2c8.06,-4.36 16.11,-8.7 24.19,-13c3.94,-2.13 7.87,-4.24 11.81,-6.36c4.91,-2.64 9.84,-5.27 14.78,-7.87c2.19,-1.2 4.41,-2.4 6.7,-3.64c1.92,-1.03 3.85,-2.07 5.84,-3.12c12.49,-8.31 17.92,-18.87 21.11,-32.42c0.97,-11.51 0.91,-22.96 0.84,-34.49c0,-3.47 0,-6.94 0.02,-10.44c0.02,-9.4 0,-18.8 -0.02,-28.19c-0.05,-9.88 -0.02,-19.73 -0.02,-29.59c0,-16.55 -0.02,-33.1 -0.07,-49.65c-0.05,-19.11 -0.05,-38.23 -0.05,-57.34c0.02,-18.41 0,-36.84 -0.02,-55.25c0,-7.83 0,-15.64 0,-23.47c0,-9.22 -0.02,-18.43 -0.05,-27.65c-0.02,-3.39 -0.02,-6.76 -0.02,-10.13c0.02,-4.63 0,-9.26 -0.02,-13.87c-0.02,-2.58 -0.02,-5.17 -0.02,-7.83c-1.06,-13.78 -4.16,-25.71 -14.14,-36.45c-14.78,-10.19 -31.2,-18.29 -47.25,-26.61c-5.25,-2.75 -10.48,-5.48 -15.7,-8.22c-1.36,-0.7 -2.69,-1.41 -4.07,-2.13c-14.5,-7.62 -28.9,-15.42 -43.29,-23.23c-3.82,-2.07 -3.82,-2.07 -7.74,-4.19c-5.02,-2.73 -10.05,-5.46 -15.09,-8.18c-29.87,-16.22 -59.83,-32.32 -89.85,-48.29c-16.77,-8.93 -33.53,-17.87 -50.28,-26.84c-4.19,-2.23 -8.37,-4.46 -12.56,-6.69c-13.01,-6.96 -26,-13.97 -38.92,-21.04c-2.29,-1.24 -4.55,-2.48 -6.9,-3.76c-4.19,-2.29 -8.39,-4.61 -12.58,-6.92c-12.99,-7.09 -24.66,-12.83 -40.16,-12.91c-1.76,-0.02 -3.53,-0.06 -5.36,-0.1c-15.68,1.9 -28.99,8.97 -42.29,16.39c-3.42,1.86 -6.83,3.74 -10.25,5.6c-1.72,0.95 -3.44,1.88 -5.2,2.87c-7.65,4.19 -15.34,8.33 -23.01,12.44c-2.31,1.26 -2.31,1.26 -4.68,2.52c-14.78,7.93 -29.66,15.77 -44.53,23.58c-20.27,10.64 -40.46,21.41 -60.57,32.3c-17.49,9.46 -35.03,18.89 -52.56,28.27c-1.43,0.76 -2.83,1.51 -4.28,2.29c-16.84,9.01 -33.69,17.98 -50.6,26.9c-6.83,3.6 -13.67,7.21 -20.5,10.85c-2.13,1.12 -4.25,2.23 -6.43,3.39c-6.79,3.6 -13.55,7.19 -20.32,10.81c-2.08,1.12 -4.19,2.21 -6.34,3.37c-18.83,10.08 -33.15,18.12 -39.33,38.23c-1.31,11.8 -1.22,23.56 -1.15,35.42c0,3.57 -0.02,7.15 -0.02,10.75c-0.05,9.67 -0.02,19.34 0.02,29.03c0.02,10.15 0.02,20.29 0,30.44c0,17.05 0.05,34.07 0.09,51.12c0.07,19.67 0.07,39.34 0.05,59.02c-0.05,18.97 -0.02,37.94 0.02,56.89c0,8.06 0,16.12 0,24.18c-0.02,9.48 0,18.97 0.05,28.45c0.02,3.47 0.02,6.96 0,10.44c-0.2,30.89 -0.2,30.89 16.25,57.22c11.02,8.27 24.03,13.93 36.57,20.04c6.97,3.47 13.76,7.23 20.55,10.99c16.97,9.4 34.12,18.51 51.27,27.63c15.75,8.37 31.48,16.84 47.16,25.33c19.82,10.72 39.8,21.18 59.96,31.39c-0.07,-1.69 -0.16,-3.39 -0.23,-5.15c-4.48,-112.2 -4.48,-112.2 22.85,-139.5c10.16,-9.84 20.7,-19.32 31.25,-28.81c2.76,-2.52 5.54,-5.02 8.33,-7.54c5.05,-4.59 10.11,-9.17 15.21,-13.76c3.85,-3.47 7.65,-7 11.38,-10.58c3.98,-3.37 3.98,-3.37 8.51,-3.37c2.81,-9.96 2.56,-19.71 2.51,-29.92c0,-2.93 0,-2.93 0,-5.91c0,-6.47 -0.02,-12.91 -0.05,-19.36c0,-4.48 0,-8.97 0,-13.43c0,-11.78 -0.02,-23.56 -0.07,-35.33c-0.02,-12.03 -0.02,-24.05 -0.05,-36.08c-0.02,-23.58 -0.05,-47.15 -0.09,-70.73c-1.34,-0.02 -2.67,-0.02 -4.05,-0.02c-32.38,-0.08 -64.76,-0.19 -97.16,-0.37c-15.66,-0.08 -31.32,-0.14 -46.98,-0.17c-15.12,-0.04 -30.23,-0.1 -45.35,-0.21c-5.77,-0.04 -11.54,-0.04 -17.31,-0.06c-8.08,0 -16.13,-0.04 -24.21,-0.12c-3.6,0.02 -3.6,0.02 -7.24,0.04c-10.02,-0.14 -16.2,-0.25 -24.98,-4.94c-12.74,-13.41 -9.55,-34.51 -9.5,-51.12c-0.02,-2.64 -0.07,-5.31 -0.11,-8.06c0,-25.29 0,-25.29 7.63,-36.22c6.56,-3.8 11.61,-4.65 19.3,-4.65c2.06,0 4.12,-0.02 6.25,-0.02c2.26,0 4.5,0.02 6.83,0.04c2.4,-0.02 4.8,-0.02 7.26,-0.02c8.08,0 16.16,0.02 24.21,0.04c5.79,0 11.56,0 17.33,0c12.45,0 24.89,0 37.34,0.02c18.01,0.04 36,0.06 53.99,0.06c29.21,0 58.4,0.04 87.59,0.08c28.38,0.02 56.73,0.06 85.1,0.08c1.74,0 3.48,0 5.29,0c8.78,0 17.54,0 26.32,0.02c72.75,0.04 145.52,0.1 218.29,0.21c1.49,3.41 2.99,6.82 4.53,10.33c-1.29,1.3 -2.58,2.58 -3.91,3.93c-3.64,3.7 -7.26,7.4 -10.91,11.1c-3.35,3.41 -6.74,6.78 -10.21,10.1c-15.98,15.7 -18.65,29.59 -20.64,50.77c-2.38,8.62 -5.66,11.51 -13.17,17.09c-7.49,1.38 -7.49,1.38 -16.04,1.53c-2.38,0.04 -2.38,0.04 -4.8,0.1c-3.37,0.06 -6.77,0.12 -10.14,0.14c-4.89,0.02 -9.78,0.12 -14.66,0.23c-33.83,0.64 -67.66,-0.83 -101.44,-2c0,2.56 0.02,5.12 0.05,7.75c0.18,24.14 0.32,48.29 0.41,72.43c0.05,12.42 0.11,24.82 0.23,37.24c0.09,11.98 0.14,23.95 0.16,35.93c0.02,4.57 0.07,9.13 0.11,13.7c0.07,6.41 0.07,12.81 0.07,19.22c0.05,2.83 0.05,2.83 0.09,5.7c-0.09,14.9 -5.66,23.56 -17.24,34.03c-6.49,5.43 -6.49,5.43 -11.02,5.43c-0.57,1.18 -1.11,2.36 -1.7,3.57c-3.33,5.5 -7.24,9.2 -12.15,13.64c-2.87,2.64 -2.87,2.64 -5.79,5.31c-3.12,2.81 -3.12,2.81 -6.31,5.68c-2.15,1.96 -4.3,3.93 -6.45,5.89c-5.66,5.15 -11.34,10.29 -17.02,15.44c-5.77,5.23 -11.52,10.46 -17.26,15.66c-10.11,9.22 -20.25,18.41 -30.39,27.61c-2.35,2.13 -2.35,2.13 -4.75,4.32c-1.61,1.36 -3.21,2.75 -4.86,4.17c-6.77,6.59 -9.3,12.09 -9.25,21.1c0,1.72 0,3.45 0,5.23c0.02,1.88 0.05,3.76 0.05,5.7c0.02,1.98 0.02,3.99 0.02,6.03c0,6.59 0.07,13.18 0.11,19.8c0,4.59 0.02,9.15 0.02,13.74c0.02,12.09 0.09,24.18 0.16,36.26c0.09,19.32 0.16,38.64 0.2,57.96c0.02,6.74 0.07,13.49 0.11,20.23c0,4.15 0.02,8.31 0.05,12.46c0,1.86 0.02,3.72 0.05,5.64c0.02,10 -0.66,19.44 -2.49,29.3c-6.79,2.07 -6.79,2.07 -13.15,-0.58c-2.76,-1.43 -5.5,-2.87 -8.21,-4.34c-1.54,-0.81 -3.05,-1.61 -4.64,-2.44c-19.14,-10.15 -38.01,-20.75 -56.89,-31.31c-14.39,-8.06 -28.92,-15.91 -43.6,-23.52c-12.88,-6.69 -25.59,-13.62 -38.29,-20.62c-4.93,-2.71 -9.89,-5.43 -14.84,-8.14c-2.49,-1.36 -4.98,-2.75 -7.54,-4.15c-30.41,-16.72 -60.82,-33.39 -91.37,-49.9c-3.87,-2.09 -7.76,-4.19 -11.63,-6.3c-11.72,-6.34 -23.44,-12.67 -35.23,-18.89c-39.92,-21.2 -70.55,-44.08 -84.18,-86.04c-5.02,-22.13 -5.2,-44.12 -5.2,-66.6c0,-3.7 -0.02,-7.4 -0.05,-11.1c-0.02,-9.94 -0.05,-19.9 -0.05,-29.86c0,-6.24 0,-12.48 -0.02,-18.72c-0.05,-21.82 -0.07,-43.64 -0.07,-65.46c0.02,-20.27 -0.05,-40.52 -0.11,-60.77c-0.05,-17.48 -0.07,-34.94 -0.07,-52.42c0,-10.39 -0.02,-20.79 -0.07,-31.18c-0.05,-9.79 -0.05,-19.59 0,-29.36c0,-3.57 -0.02,-7.13 -0.05,-10.7c-0.29,-40.62 8.19,-75.77 39.94,-106.11c11.61,-9.67 24.64,-16.8 38.15,-23.97c4.05,-2.19 8.12,-4.38 12.2,-6.57c11.63,-6.24 23.28,-12.42 34.96,-18.6c9.12,-4.81 18.22,-9.67 27.33,-14.53c23.6,-12.6 47.27,-25.11 70.96,-37.59c23.24,-12.23 46.41,-24.57 69.58,-36.93c11.29,-6.01 22.58,-12.03 33.87,-18.04c4.5,-2.42 9.01,-4.81 13.51,-7.21c9.25,-4.92 18.51,-9.86 27.76,-14.77c2.33,-1.24 4.66,-2.48 7.04,-3.76c4.62,-2.46 9.21,-4.9 13.83,-7.34c10.16,-5.41 20.3,-10.83 30.32,-16.43c23.99,-13.37 46.25,-23.06 74.74,-25.21z" fill="#21A9FE" id="svg_1"/>
  <path d="m0,0c2,1 2,1 2,1l-2,-1z" fill="#29A9FB" id="svg_3" transform="translate(673,600)"/>
  <path fill="#2DA3F2" id="svg_4" transform="translate(0,0)"/>
  <path fill="#2E9CEA" id="svg_5" transform="translate(0,0)"/>
  <path fill="#2EA1EF" id="svg_6" transform="translate(0,0)"/>
  <path fill="#2DA2EF" id="svg_7" transform="translate(0,0)"/>
  <path fill="#2FA3F3" id="svg_8" transform="translate(0,0)"/>
  <path fill="#2DA4F9" id="svg_9" transform="translate(0,0)"/>
  <path fill="#2CA3F6" id="svg_10" transform="translate(0,0)"/>
  <path fill="#2DA7F8" id="svg_11" transform="translate(0,0)"/>
  <path fill="#2EAAFD" id="svg_12" transform="translate(0,0)"/>
  <path fill="#2EA2F6" id="svg_13" transform="translate(0,0)"/>
  <path fill="#2CA3F3" id="svg_14" transform="translate(0,0)"/>
  <path fill="#2AA3F4" id="svg_15" transform="translate(0,0)"/>
  <path fill="#2EADFE" id="svg_16" transform="translate(0,0)"/>
  <path fill="#2DA4F3" id="svg_17" transform="translate(0,0)"/>
  <path fill="#2DAAFB" id="svg_18" transform="translate(0,0)"/>
  <path fill="#29AEFF" id="svg_19" transform="translate(0,0)"/>
  <path fill="#2EA2F1" id="svg_20" transform="translate(0,0)"/>
  <path fill="#2EA3F1" id="svg_21" transform="translate(0,0)"/>
  <path fill="#28ACFB" id="svg_22" transform="translate(0,0)"/>
  <path fill="#29A3F4" id="svg_23" transform="translate(0,0)"/>
  <path fill="#2BA5F4" id="svg_24" transform="translate(0,0)"/>
  <path fill="#2BABFF" id="svg_25" transform="translate(0,0)"/>
  <path fill="#2BA9FE" id="svg_26" transform="translate(0,0)"/>
  <path fill="#2AA3F3" id="svg_27" transform="translate(0,0)"/>
 </g>
</svg>