<?xml version="1.0"?>
<svg width="1024" height="1024" xmlns="http://www.w3.org/2000/svg" xmlns:svg="http://www.w3.org/2000/svg" version="1.1">
 <g class="layer">
  <title>Layer 1</title>
  <path d="m504.58,-2.1c34.41,-1.37 61.27,9.83 90.09,24.9c2.81,1.45 2.81,1.45 5.69,2.95c10.48,5.45 20.92,10.94 31.33,16.46c14.26,7.56 28.63,14.95 43.03,22.3c2.49,1.27 4.98,2.56 7.53,3.87c5.09,2.6 10.16,5.2 15.25,7.8c65.12,33.3 65.12,33.3 92.05,47.43c13.77,7.21 27.57,14.38 41.37,21.54c2.33,1.21 4.68,2.42 7.09,3.67c14.17,7.35 28.36,14.7 42.57,22.06c6.89,3.56 13.75,7.15 20.64,10.73c9.12,4.73 18.29,9.42 27.48,14.05c41.76,21.22 73.02,42.74 87.51,85.17c2.21,9.6 2.63,18.96 2.63,28.75c0,2.44 0,2.44 0,4.91c0.02,5.43 0.05,10.85 0.05,16.28c0,3.89 0.02,7.78 0.02,11.69c0.02,10.57 0.05,21.13 0.07,31.72c0,6.59 0,13.21 0.02,19.82c0.02,20.72 0.05,41.43 0.05,62.15c0.02,23.86 0.07,47.73 0.14,71.59c0.05,18.49 0.07,36.96 0.07,55.43c0,11.02 0.02,22.06 0.05,33.07c0.05,10.38 0.05,20.74 0.02,31.13c0,3.79 0.02,7.6 0.05,11.39c0.21,37.31 -5.85,70.34 -36.4,98.25c-17.44,14.76 -38.33,25.52 -59.08,36.12c-5.92,3.01 -11.82,6.06 -17.71,9.11c-2.97,1.54 -5.94,3.07 -8.89,4.59c-11.98,6.18 -23.86,12.47 -35.7,18.82c-17.81,9.54 -35.66,18.98 -53.56,28.4c-1.34,0.72 -2.65,1.41 -4.03,2.13c-19.6,10.32 -39.21,20.62 -58.83,30.92c-16.54,8.68 -33.06,17.39 -49.57,26.09c-3.92,2.05 -3.92,2.05 -7.88,4.16c-13.36,7.02 -26.7,14.05 -40.01,21.11c-24.37,12.88 -48.79,25.74 -73.34,38.34c-1.93,1.02 -3.89,2.03 -5.9,3.07c-15.13,7.7 -27.64,12.12 -45.36,12.41c-2.72,0.08 -5.46,0.16 -8.27,0.25c-10.25,-1.52 -12.97,-4.05 -19.21,-11.37c-1.68,-6.59 -1.54,-13.02 -1.43,-19.74c-0.02,-1.97 -0.02,-3.95 -0.05,-5.98c-0.02,-6.53 0.05,-13.04 0.09,-19.58c0,-4.55 0,-9.09 0,-13.64c0,-9.5 0.05,-19.02 0.12,-28.55c0.09,-12.18 0.12,-24.37 0.09,-36.55c0,-9.38 0.02,-18.76 0.07,-28.16c0,-4.48 0.02,-8.97 0.02,-13.47c0,-6.29 0.05,-12.57 0.12,-18.86c-0.02,-1.84 -0.02,-3.69 -0.02,-5.59c0.21,-14.33 3.46,-25.7 14.67,-36.55c1.43,-1.37 2.83,-2.74 4.28,-4.14c9.47,-8.79 19,-17.47 28.66,-26.05c3.66,-3.26 7.3,-6.53 10.94,-9.81c2.3,-2.07 4.63,-4.14 6.98,-6.2c2.07,-1.88 4.17,-3.75 6.33,-5.67c5.14,-4.05 5.14,-4.05 9.74,-4.05c0.62,-1.23 1.24,-2.46 1.89,-3.71c2.67,-4.44 5.28,-7.25 9.33,-10.75c1.34,-1.15 2.65,-2.31 4.03,-3.52c2.14,-1.84 2.14,-1.84 4.33,-3.73c3.02,-2.64 6.04,-5.28 9.05,-7.93c4.77,-4.14 9.54,-8.27 14.3,-12.41c4.61,-3.99 9.19,-8.03 13.77,-12.04c2.17,-1.84 2.17,-1.84 4.35,-3.73c1.34,-1.17 2.65,-2.33 4.01,-3.52c1.17,-1.02 2.35,-2.03 3.55,-3.07c5.48,-6.29 5.39,-13.23 5.53,-20.95c0.02,-1.88 0.07,-3.77 0.12,-5.71c0.09,-8.58 0.18,-17.18 0.25,-25.78c0.02,-4.53 0.09,-9.05 0.18,-13.58c0.12,-6.55 0.16,-13.09 0.21,-19.64c0.05,-2.01 0.09,-4.03 0.16,-6.1c-0.05,-9.3 -0.12,-15.77 -7,-23.08c-1.93,-1.68 -3.89,-3.34 -5.87,-5.06c-6.68,-9.71 -4.95,-20.03 -2.3,-30.72c6.61,-11.75 15.94,-18.39 29.95,-22.53c14.54,-1.11 24.85,0.49 36.86,8.19c9.44,8.03 13.36,16.57 14.12,28.1c-0.69,10.32 -4.63,18.25 -11.98,26.17c-4.45,3.07 -4.45,3.07 -9.05,3.07c0,1.33 0.02,2.68 0.05,4.08c0.21,14.05 0.35,28.1 0.46,42.14c0.05,5.24 0.09,10.48 0.18,15.73c0.12,7.54 0.16,15.09 0.21,22.63c0.05,2.33 0.09,4.65 0.14,7.04c0,16.87 -3.18,29.18 -14.83,42.68c-1.57,1.35 -3.11,2.72 -4.72,4.12c-1.73,1.52 -3.43,3.03 -5.21,4.59c-1.77,1.52 -3.55,3.01 -5.37,4.57c-2.67,2.36 -2.67,2.36 -5.41,4.77c-13.2,11.49 -13.2,11.49 -18.47,11.49c-0.58,1.17 -1.17,2.36 -1.75,3.58c-3.25,5.22 -6.91,8.56 -11.77,12.7c-1.84,1.56 -3.66,3.13 -5.55,4.75c-1.98,1.68 -3.96,3.36 -5.99,5.08c-4.17,3.6 -8.34,7.21 -12.48,10.81c-6.56,5.67 -13.13,11.32 -19.74,16.94c-6.4,5.43 -12.72,10.91 -19.03,16.4c-1.98,1.66 -3.96,3.3 -5.99,5c-13.29,11.71 -18.06,20.77 -19.05,37.37c-0.18,2.6 -0.18,2.6 -0.35,5.26c-0.18,5.26 -0.18,10.48 -0.12,15.75c0,1.86 0.02,3.75 0.02,5.69c0.02,5.9 0.07,11.8 0.14,17.69c0.02,4.05 0.05,8.09 0.07,12.12c0.05,9.83 0.12,19.66 0.23,29.49c21.91,-11.1 43.74,-22.32 65.49,-33.67c1.47,-0.76 2.95,-1.54 4.45,-2.31c18.08,-9.42 36.1,-18.92 54.04,-28.55c14.17,-7.56 28.47,-14.95 42.73,-22.38c1.47,-0.78 2.95,-1.54 4.47,-2.33c7.21,-3.75 14.42,-7.5 21.63,-11.26c32.32,-16.81 64.54,-33.73 96.72,-50.75c8.2,-4.32 16.4,-8.62 24.62,-12.88c4.01,-2.11 8.02,-4.2 12.02,-6.31c5,-2.62 10.02,-5.22 15.04,-7.8c2.23,-1.19 4.49,-2.38 6.82,-3.6c1.96,-1.02 3.92,-2.05 5.94,-3.09c12.72,-8.23 18.24,-18.7 21.49,-32.13c0.99,-11.41 0.92,-22.75 0.85,-34.18c0,-3.44 0,-6.88 0.02,-10.34c0.02,-9.32 0,-18.64 -0.02,-27.93c-0.05,-9.79 -0.02,-19.56 -0.02,-29.32c0,-16.4 -0.02,-32.81 -0.07,-49.21c-0.05,-18.94 -0.05,-37.88 -0.05,-56.83c0.02,-18.25 0,-36.51 -0.02,-54.76c0,-7.76 0,-15.5 0,-23.26c0,-9.13 -0.02,-18.27 -0.05,-27.4c-0.02,-3.36 -0.02,-6.7 -0.02,-10.03c0.02,-4.59 0,-9.17 -0.02,-13.74c-0.02,-2.56 -0.02,-5.12 -0.02,-7.76c-1.08,-13.66 -4.24,-25.48 -14.4,-36.12c-15.04,-10.1 -31.77,-18.12 -48.1,-26.38c-5.34,-2.72 -10.67,-5.43 -15.99,-8.15c-1.38,-0.7 -2.74,-1.39 -4.15,-2.11c-14.77,-7.56 -29.42,-15.28 -44.07,-23.02c-3.89,-2.05 -3.89,-2.05 -7.88,-4.16c-5.11,-2.7 -10.23,-5.41 -15.36,-8.11c-30.41,-16.08 -60.9,-32.03 -91.47,-47.86c-17.07,-8.85 -34.14,-17.71 -51.18,-26.6c-4.26,-2.21 -8.52,-4.42 -12.78,-6.63c-13.25,-6.9 -26.47,-13.84 -39.62,-20.85c-2.33,-1.23 -4.63,-2.46 -7.03,-3.73c-4.26,-2.27 -8.55,-4.57 -12.81,-6.86c-13.22,-7.02 -25.11,-12.72 -40.89,-12.8c-1.8,-0.02 -3.59,-0.06 -5.46,-0.1c-15.96,1.88 -29.51,8.89 -43.05,16.24c-3.48,1.84 -6.96,3.71 -10.43,5.55c-1.75,0.94 -3.5,1.86 -5.3,2.85c-7.79,4.16 -15.62,8.25 -23.43,12.33c-2.35,1.25 -2.35,1.25 -4.77,2.5c-15.04,7.86 -30.2,15.62 -45.33,23.37c-20.64,10.55 -41.19,21.22 -61.66,32.01c-17.81,9.38 -35.66,18.72 -53.51,28.01c-1.45,0.76 -2.88,1.49 -4.35,2.27c-17.14,8.93 -34.3,17.82 -51.51,26.66c-6.96,3.56 -13.91,7.15 -20.87,10.75c-2.17,1.11 -4.33,2.21 -6.54,3.36c-6.91,3.56 -13.8,7.13 -20.69,10.71c-2.12,1.11 -4.26,2.19 -6.45,3.34c-19.17,9.99 -33.75,17.96 -40.03,37.88c-1.34,11.69 -1.24,23.35 -1.17,35.1c0,3.54 -0.02,7.09 -0.02,10.65c-0.05,9.58 -0.02,19.17 0.02,28.77c0.02,10.05 0.02,20.11 0,30.16c0,16.89 0.05,33.77 0.09,50.66c0.07,19.5 0.07,38.99 0.05,58.49c-0.05,18.8 -0.02,37.6 0.02,56.38c0,7.99 0,15.97 0,23.96c-0.02,9.4 0,18.8 0.05,28.2c0.02,3.44 0.02,6.9 0,10.34c-0.21,30.62 -0.21,30.62 16.54,56.7c11.22,8.19 24.46,13.8 37.22,19.86c7.09,3.44 14.01,7.17 20.92,10.89c17.28,9.32 34.74,18.35 52.2,27.38c16.03,8.29 32.04,16.69 48.01,25.11c20.18,10.63 40.52,20.99 61.04,31.11c-0.07,-1.68 -0.16,-3.36 -0.23,-5.1c-4.56,-111.2 -4.56,-111.2 23.27,-138.25c10.34,-9.75 21.08,-19.15 31.81,-28.55c2.81,-2.5 5.64,-4.98 8.48,-7.47c5.14,-4.55 10.3,-9.09 15.48,-13.64c3.92,-3.44 7.79,-6.94 11.59,-10.48c4.05,-3.34 4.05,-3.34 8.66,-3.34c2.86,-9.87 2.6,-19.54 2.56,-29.65c0,-2.91 0,-2.91 0,-5.86c0,-6.41 -0.02,-12.8 -0.05,-19.19c0,-4.44 0,-8.89 0,-13.31c0,-11.67 -0.02,-23.35 -0.07,-35.02c-0.02,-11.92 -0.02,-23.84 -0.05,-35.76c-0.02,-23.37 -0.05,-46.73 -0.09,-70.1c-1.36,-0.02 -2.72,-0.02 -4.12,-0.02c-32.96,-0.08 -65.93,-0.18 -98.91,-0.37c-15.94,-0.08 -31.88,-0.14 -47.82,-0.16c-15.39,-0.04 -30.77,-0.1 -46.16,-0.2c-5.87,-0.04 -11.75,-0.04 -17.62,-0.06c-8.22,0 -16.42,-0.04 -24.65,-0.12c-3.66,0.02 -3.66,0.02 -7.37,0.04c-10.2,-0.14 -16.49,-0.25 -25.43,-4.89c-12.97,-13.29 -9.72,-34.2 -9.67,-50.66c-0.02,-2.62 -0.07,-5.26 -0.12,-7.99c0,-25.07 0,-25.07 7.76,-35.9c6.68,-3.77 11.82,-4.61 19.65,-4.61c2.1,0 4.19,-0.02 6.36,-0.02c2.3,0 4.58,0.02 6.96,0.04c2.44,-0.02 4.88,-0.02 7.39,-0.02c8.22,0 16.45,0.02 24.65,0.04c5.9,0 11.77,0 17.64,0c12.67,0 25.34,0 38.01,0.02c18.34,0.04 36.65,0.06 54.96,0.06c29.74,0 59.45,0.04 89.17,0.08c28.89,0.02 57.75,0.06 86.63,0.08c1.77,0 3.55,0 5.39,0c8.94,0 17.85,0 26.79,0.02c74.06,0.04 148.14,0.1 222.22,0.2c1.52,3.38 3.04,6.76 4.61,10.24c-1.31,1.29 -2.63,2.56 -3.99,3.89c-3.71,3.67 -7.39,7.33 -11.1,11c-3.41,3.38 -6.86,6.72 -10.39,10.01c-16.26,15.56 -18.98,29.32 -21.01,50.32c-2.42,8.54 -5.76,11.41 -13.41,16.94c-7.62,1.37 -7.62,1.37 -16.33,1.52c-2.42,0.04 -2.42,0.04 -4.88,0.1c-3.43,0.06 -6.89,0.12 -10.32,0.14c-4.98,0.02 -9.95,0.12 -14.93,0.23c-34.44,0.63 -68.87,-0.82 -103.27,-1.99c0,2.54 0.02,5.08 0.05,7.68c0.18,23.92 0.32,47.86 0.41,71.78c0.05,12.31 0.12,24.59 0.23,36.9c0.09,11.88 0.14,23.73 0.16,35.61c0.02,4.53 0.07,9.05 0.12,13.58c0.07,6.35 0.07,12.7 0.07,19.04c0.05,2.81 0.05,2.81 0.09,5.65c-0.09,14.76 -5.76,23.35 -17.55,33.73c-6.61,5.39 -6.61,5.39 -11.22,5.39c-0.58,1.17 -1.13,2.33 -1.73,3.54c-3.39,5.45 -7.37,9.11 -12.37,13.52c-2.93,2.62 -2.93,2.62 -5.9,5.26c-3.18,2.79 -3.18,2.79 -6.43,5.63c-2.19,1.95 -4.38,3.89 -6.56,5.84c-5.76,5.1 -11.54,10.2 -17.32,15.3c-5.87,5.18 -11.72,10.36 -17.58,15.52c-10.3,9.13 -20.62,18.25 -30.94,27.36c-2.4,2.11 -2.4,2.11 -4.84,4.28c-1.64,1.35 -3.27,2.72 -4.95,4.14c-6.89,6.53 -9.47,11.98 -9.42,20.91c0,1.7 0,3.42 0,5.18c0.02,1.86 0.05,3.73 0.05,5.65c0.02,1.97 0.02,3.95 0.02,5.98c0,6.53 0.07,13.07 0.12,19.62c0,4.55 0.02,9.07 0.02,13.62c0.02,11.98 0.09,23.96 0.16,35.94c0.09,19.15 0.16,38.29 0.21,57.44c0.02,6.68 0.07,13.37 0.12,20.05c0,4.12 0.02,8.23 0.05,12.35c0,1.84 0.02,3.69 0.05,5.59c0.02,9.91 -0.67,19.27 -2.53,29.04c-6.91,2.05 -6.91,2.05 -13.38,-0.57c-2.81,-1.41 -5.6,-2.85 -8.36,-4.3c-1.57,-0.8 -3.11,-1.6 -4.72,-2.42c-19.49,-10.05 -38.7,-20.56 -57.91,-31.02c-14.65,-7.99 -29.44,-15.77 -44.39,-23.3c-13.11,-6.63 -26.05,-13.5 -38.98,-20.44c-5.02,-2.68 -10.07,-5.39 -15.11,-8.07c-2.53,-1.35 -5.07,-2.72 -7.67,-4.12c-30.96,-16.57 -61.92,-33.09 -93.02,-49.46c-3.94,-2.07 -7.9,-4.16 -11.84,-6.25c-11.93,-6.29 -23.86,-12.55 -35.87,-18.72c-40.63,-21.01 -71.82,-43.68 -85.69,-85.27c-5.11,-21.93 -5.3,-43.72 -5.3,-66c0,-3.67 -0.02,-7.33 -0.05,-11c-0.02,-9.85 -0.05,-19.72 -0.05,-29.59c0,-6.18 0,-12.37 -0.02,-18.55c-0.05,-21.63 -0.07,-43.25 -0.07,-64.88c0.02,-20.09 -0.05,-40.16 -0.12,-60.23c-0.05,-17.32 -0.07,-34.63 -0.07,-51.95c0,-10.3 -0.02,-20.6 -0.07,-30.9c-0.05,-9.71 -0.05,-19.41 0,-29.1c0,-3.54 -0.02,-7.07 -0.05,-10.61c-0.3,-40.26 8.34,-75.09 40.66,-105.16c11.82,-9.58 25.09,-16.65 38.84,-23.75c4.12,-2.17 8.27,-4.34 12.42,-6.51c11.84,-6.18 23.7,-12.31 35.59,-18.43c9.28,-4.77 18.54,-9.58 27.83,-14.4c24.03,-12.49 48.12,-24.88 72.24,-37.25c23.66,-12.12 47.24,-24.35 70.83,-36.59c11.49,-5.96 22.99,-11.92 34.48,-17.88c4.58,-2.4 9.17,-4.77 13.75,-7.15c9.42,-4.87 18.84,-9.77 28.26,-14.64c2.37,-1.23 4.75,-2.46 7.16,-3.73c4.7,-2.44 9.38,-4.85 14.07,-7.27c10.34,-5.37 20.66,-10.73 30.87,-16.28c24.42,-13.25 47.08,-22.85 76.08,-24.98z" fill="#21A9FE" id="svg_1" transform="matrix(1 0 0 1 0 0)"/>
  <path d="m822.02,325.22c10.69,5.26 18.09,11.8 22.54,22.4c3.98,13 2.45,22.92 -4.14,34.9c-7.8,9.38 -15.67,14.02 -27.77,17.45c-13.98,0.57 -23.86,-2.36 -34.71,-10.91c-10.46,-10.93 -12.45,-19.33 -12.19,-33.68c1.18,-10.6 5.51,-17.12 13.79,-24.21c13.03,-8.9 27.19,-11.12 42.48,-5.95z" fill="#23AAFE" id="svg_2"/>
  <path d="m0,0c2,1 2,1 2,1l-2,-1z" fill="#29A9FB" id="svg_3" transform="translate(673,600)"/>
  <path fill="#2DA3F2" id="svg_4" transform="translate(0,0)"/>
  <path fill="#2E9CEA" id="svg_5" transform="translate(0,0)"/>
  <path fill="#2EA1EF" id="svg_6" transform="translate(0,0)"/>
  <path fill="#2DA2EF" id="svg_7" transform="translate(0,0)"/>
  <path fill="#2FA3F3" id="svg_8" transform="translate(0,0)"/>
  <path fill="#2DA4F9" id="svg_9" transform="translate(0,0)"/>
  <path fill="#2CA3F6" id="svg_10" transform="translate(0,0)"/>
  <path fill="#2DA7F8" id="svg_11" transform="translate(0,0)"/>
  <path fill="#2EAAFD" id="svg_12" transform="translate(0,0)"/>
  <path fill="#2EA2F6" id="svg_13" transform="translate(0,0)"/>
  <path fill="#2CA3F3" id="svg_14" transform="translate(0,0)"/>
  <path fill="#2AA3F4" id="svg_15" transform="translate(0,0)"/>
  <path fill="#2EADFE" id="svg_16" transform="translate(0,0)"/>
  <path fill="#2DA4F3" id="svg_17" transform="translate(0,0)"/>
  <path fill="#2DAAFB" id="svg_18" transform="translate(0,0)"/>
  <path fill="#29AEFF" id="svg_19" transform="translate(0,0)"/>
  <path fill="#2EA2F1" id="svg_20" transform="translate(0,0)"/>
  <path fill="#2EA3F1" id="svg_21" transform="translate(0,0)"/>
  <path fill="#28ACFB" id="svg_22" transform="translate(0,0)"/>
  <path fill="#29A3F4" id="svg_23" transform="translate(0,0)"/>
  <path fill="#2BA5F4" id="svg_24" transform="translate(0,0)"/>
  <path fill="#2BABFF" id="svg_25" transform="translate(0,0)"/>
  <path fill="#2BA9FE" id="svg_26" transform="translate(0,0)"/>
  <path fill="#2AA3F3" id="svg_27" transform="translate(0,0)"/>
 </g>
</svg>