<?xml version="1.0"?>
<svg width="1024" height="1024" xmlns="http://www.w3.org/2000/svg" xmlns:svg="http://www.w3.org/2000/svg" version="1.1">
 <g class="layer">
  <title>Layer 1</title>
  <path d="m518.38,21.9c32.69,-1.36 58.2,9.73 85.58,24.65c2.67,1.44 2.67,1.44 5.4,2.92c9.96,5.39 19.87,10.83 29.76,16.3c13.54,7.48 27.2,14.8 40.87,22.08c2.36,1.26 4.73,2.53 7.16,3.83c4.84,2.57 9.65,5.15 14.49,7.72c61.86,32.96 61.86,32.96 87.44,46.95c13.08,7.14 26.19,14.23 39.3,21.33c2.21,1.2 4.44,2.39 6.74,3.63c13.46,7.28 26.94,14.56 40.44,21.83c6.54,3.53 13.06,7.08 19.61,10.62c8.66,4.68 17.37,9.33 26.1,13.91c39.67,21 69.36,42.31 83.13,84.31c2.1,9.51 2.49,18.77 2.49,28.46c0,2.41 0,2.41 0,4.87c0.02,5.37 0.04,10.74 0.04,16.12c0,3.85 0.02,7.7 0.02,11.58c0.02,10.46 0.04,20.92 0.07,31.4c0,6.53 0,13.08 0.02,19.62c0.02,20.52 0.04,41.01 0.04,61.53c0.02,23.62 0.07,47.26 0.13,70.87c0.04,18.31 0.07,36.59 0.07,54.88c0,10.91 0.02,21.83 0.04,32.74c0.04,10.28 0.04,20.54 0.02,30.81c0,3.75 0.02,7.52 0.04,11.27c0.2,36.94 -5.56,69.64 -34.57,97.27c-16.56,14.62 -36.41,25.26 -56.12,35.76c-5.62,2.98 -11.22,6 -16.83,9.02c-2.82,1.52 -5.65,3.04 -8.45,4.54c-11.38,6.12 -22.67,12.35 -33.92,18.63c-16.91,9.45 -33.87,18.79 -50.87,28.12c-1.27,0.71 -2.52,1.4 -3.83,2.11c-18.62,10.22 -37.24,20.41 -55.88,30.61c-15.71,8.6 -31.4,17.21 -47.09,25.83c-3.72,2.03 -3.72,2.03 -7.48,4.12c-12.69,6.95 -25.36,13.91 -38.01,20.9c-23.15,12.75 -46.34,25.48 -69.67,37.95c-1.84,1.01 -3.7,2.01 -5.6,3.04c-14.38,7.62 -26.26,12 -43.08,12.29c-2.58,0.08 -5.19,0.16 -7.86,0.24c-9.74,-1.5 -12.32,-4.01 -18.25,-11.25c-1.6,-6.53 -1.47,-12.89 -1.36,-19.54c-0.02,-1.95 -0.02,-3.91 -0.04,-5.92c-0.02,-6.47 0.04,-12.91 0.09,-19.38c0,-4.5 0,-9 0,-13.5c0,-9.41 0.04,-18.83 0.11,-28.26c0.09,-12.06 0.11,-24.12 0.09,-36.19c0,-9.28 0.02,-18.57 0.07,-27.87c0,-4.44 0.02,-8.88 0.02,-13.34c0,-6.22 0.04,-12.45 0.11,-18.67c-0.02,-1.82 -0.02,-3.65 -0.02,-5.53c0.2,-14.19 3.28,-25.44 13.94,-36.19c1.36,-1.36 2.69,-2.72 4.07,-4.1c8.99,-8.7 18.05,-17.29 27.22,-25.79c3.48,-3.22 6.94,-6.47 10.39,-9.71c2.19,-2.05 4.4,-4.1 6.63,-6.14c1.97,-1.87 3.96,-3.71 6.02,-5.62c4.88,-4.01 4.88,-4.01 9.26,-4.01c0.59,-1.22 1.18,-2.43 1.79,-3.67c2.54,-4.4 5.01,-7.18 8.86,-10.64c1.27,-1.14 2.52,-2.29 3.83,-3.49c2.03,-1.82 2.03,-1.82 4.11,-3.69c2.87,-2.62 5.73,-5.23 8.6,-7.85c4.53,-4.1 9.06,-8.19 13.59,-12.29c4.38,-3.95 8.73,-7.95 13.08,-11.92c2.06,-1.82 2.06,-1.82 4.14,-3.69c1.27,-1.16 2.52,-2.31 3.81,-3.49c1.12,-1.01 2.23,-2.01 3.37,-3.04c5.21,-6.22 5.12,-13.1 5.25,-20.74c0.02,-1.87 0.07,-3.73 0.11,-5.66c0.09,-8.49 0.18,-17.01 0.24,-25.52c0.02,-4.48 0.09,-8.96 0.18,-13.44c0.11,-6.49 0.15,-12.95 0.2,-19.44c0.04,-1.99 0.09,-3.99 0.15,-6.04c-0.04,-9.2 -0.11,-15.61 -6.65,-22.85c-1.84,-1.66 -3.7,-3.3 -5.58,-5.01c-6.35,-9.61 -4.7,-19.83 -2.19,-30.41c6.28,-11.64 15.14,-18.2 28.45,-22.3c13.81,-1.09 23.61,0.49 35.01,8.11c8.97,7.95 12.69,16.4 13.41,27.81c-0.66,10.22 -4.4,18.06 -11.38,25.91c-4.22,3.04 -4.22,3.04 -8.6,3.04c0,1.32 0.02,2.66 0.04,4.03c0.2,13.91 0.33,27.81 0.44,41.72c0.04,5.19 0.09,10.38 0.18,15.57c0.11,7.46 0.15,14.94 0.2,22.4c0.04,2.31 0.09,4.6 0.13,6.97c0,16.7 -3.02,28.89 -14.09,42.25c-1.49,1.34 -2.95,2.7 -4.49,4.07c-1.64,1.5 -3.26,3 -4.95,4.54c-1.68,1.5 -3.37,2.98 -5.1,4.52c-2.54,2.33 -2.54,2.33 -5.14,4.72c-12.54,11.37 -12.54,11.37 -17.55,11.37c-0.55,1.16 -1.12,2.33 -1.66,3.55c-3.09,5.17 -6.56,8.47 -11.18,12.57c-1.75,1.54 -3.48,3.1 -5.27,4.7c-1.88,1.66 -3.76,3.32 -5.69,5.03c-3.96,3.57 -7.92,7.14 -11.86,10.7c-6.24,5.62 -12.47,11.21 -18.75,16.77c-6.08,5.37 -12.08,10.81 -18.07,16.24c-1.88,1.64 -3.76,3.26 -5.69,4.95c-12.63,11.6 -17.15,20.56 -18.1,37c-0.18,2.57 -0.18,2.57 -0.33,5.21c-0.18,5.21 -0.18,10.38 -0.11,15.59c0,1.84 0.02,3.71 0.02,5.64c0.02,5.84 0.07,11.68 0.13,17.52c0.02,4.01 0.04,8.01 0.07,12c0.04,9.73 0.11,19.46 0.22,29.19c20.81,-10.99 41.55,-22.1 62.21,-33.33c1.4,-0.75 2.8,-1.52 4.22,-2.29c17.18,-9.33 34.29,-18.73 51.33,-28.26c13.46,-7.48 27.04,-14.8 40.59,-22.16c1.4,-0.77 2.8,-1.52 4.24,-2.31c6.85,-3.71 13.7,-7.42 20.55,-11.15c30.7,-16.64 61.31,-33.39 91.88,-50.24c7.79,-4.28 15.58,-8.53 23.39,-12.75c3.81,-2.09 7.61,-4.16 11.42,-6.24c4.75,-2.59 9.52,-5.17 14.29,-7.72c2.12,-1.18 4.27,-2.35 6.48,-3.57c1.86,-1.01 3.72,-2.03 5.65,-3.06c12.08,-8.15 17.33,-18.51 20.41,-31.81c0.94,-11.29 0.88,-22.52 0.81,-33.83c0,-3.41 0,-6.81 0.02,-10.24c0.02,-9.22 0,-18.45 -0.02,-27.65c-0.04,-9.69 -0.02,-19.36 -0.02,-29.03c0,-16.24 -0.02,-32.48 -0.07,-48.71c-0.04,-18.75 -0.04,-37.5 -0.04,-56.26c0.02,-18.06 0,-36.15 -0.02,-54.21c0,-7.68 0,-15.35 0,-23.03c0,-9.04 -0.02,-18.08 -0.04,-27.12c-0.02,-3.32 -0.02,-6.63 -0.02,-9.93c0.02,-4.54 0,-9.08 -0.02,-13.6c-0.02,-2.53 -0.02,-5.07 -0.02,-7.68c-1.03,-13.52 -4.03,-25.22 -13.68,-35.76c-14.29,-9.99 -30.17,-17.94 -45.69,-26.11c-5.08,-2.7 -10.13,-5.37 -15.19,-8.07c-1.31,-0.69 -2.6,-1.38 -3.94,-2.09c-14.03,-7.48 -27.94,-15.12 -41.86,-22.79c-3.7,-2.03 -3.7,-2.03 -7.48,-4.12c-4.86,-2.68 -9.72,-5.35 -14.59,-8.03c-28.88,-15.91 -57.85,-31.71 -86.89,-47.38c-16.21,-8.76 -32.43,-17.54 -48.62,-26.33c-4.05,-2.19 -8.1,-4.38 -12.14,-6.57c-12.58,-6.83 -25.14,-13.7 -37.64,-20.64c-2.21,-1.22 -4.4,-2.43 -6.67,-3.69c-4.05,-2.25 -8.12,-4.52 -12.17,-6.79c-12.56,-6.95 -23.85,-12.59 -38.84,-12.67c-1.71,-0.02 -3.41,-0.06 -5.19,-0.1c-15.16,1.87 -28.03,8.8 -40.9,16.08c-3.3,1.82 -6.61,3.67 -9.91,5.49c-1.66,0.93 -3.33,1.84 -5.03,2.82c-7.4,4.12 -14.84,8.17 -22.25,12.2c-2.23,1.24 -2.23,1.24 -4.53,2.47c-14.29,7.78 -28.69,15.47 -43.06,23.13c-19.61,10.44 -39.12,21 -58.58,31.69c-16.91,9.28 -33.87,18.53 -50.83,27.73c-1.38,0.75 -2.74,1.48 -4.14,2.25c-16.28,8.84 -32.58,17.64 -48.93,26.39c-6.61,3.53 -13.22,7.08 -19.82,10.64c-2.06,1.09 -4.11,2.19 -6.21,3.32c-6.56,3.53 -13.11,7.05 -19.65,10.6c-2.01,1.09 -4.05,2.17 -6.13,3.3c-18.2,9.89 -32.06,17.78 -38.03,37.5c-1.27,11.58 -1.18,23.11 -1.12,34.75c0,3.51 -0.02,7.01 -0.02,10.54c-0.04,9.49 -0.02,18.98 0.02,28.48c0.02,9.95 0.02,19.91 0,29.86c0,16.72 0.04,33.43 0.09,50.15c0.07,19.3 0.07,38.6 0.04,57.9c-0.04,18.61 -0.02,37.22 0.02,55.81c0,7.91 0,15.81 0,23.72c-0.02,9.31 0,18.61 0.04,27.92c0.02,3.41 0.02,6.83 0,10.24c-0.2,30.31 -0.2,30.31 15.71,56.13c10.66,8.11 23.24,13.66 35.36,19.66c6.74,3.41 13.3,7.1 19.87,10.78c16.41,9.22 33,18.16 49.58,27.1c15.23,8.21 30.44,16.52 45.6,24.85c19.17,10.52 38.49,20.78 57.98,30.79c-0.07,-1.66 -0.15,-3.32 -0.22,-5.05c-4.33,-110.08 -4.33,-110.08 22.1,-136.86c9.82,-9.65 20.02,-18.95 30.22,-28.26c2.67,-2.47 5.36,-4.93 8.05,-7.4c4.88,-4.5 9.78,-9 14.7,-13.5c3.72,-3.41 7.4,-6.87 11.01,-10.38c3.85,-3.3 3.85,-3.3 8.23,-3.3c2.71,-9.77 2.47,-19.34 2.43,-29.35c0,-2.88 0,-2.88 0,-5.8c0,-6.35 -0.02,-12.67 -0.04,-19c0,-4.4 0,-8.8 0,-13.18c0,-11.56 -0.02,-23.11 -0.07,-34.67c-0.02,-11.8 -0.02,-23.6 -0.04,-35.4c-0.02,-23.13 -0.04,-46.26 -0.09,-69.39c-1.29,-0.02 -2.58,-0.02 -3.92,-0.02c-31.31,-0.08 -62.62,-0.18 -93.96,-0.36c-15.14,-0.08 -30.28,-0.14 -45.42,-0.16c-14.62,-0.04 -29.23,-0.1 -43.85,-0.2c-5.58,-0.04 -11.16,-0.04 -16.74,-0.06c-7.81,0 -15.6,-0.04 -23.41,-0.12c-3.48,0.02 -3.48,0.02 -7,0.04c-9.69,-0.14 -15.67,-0.24 -24.16,-4.85c-12.32,-13.16 -9.23,-33.85 -9.19,-50.15c-0.02,-2.59 -0.07,-5.21 -0.11,-7.91c0,-24.81 0,-24.81 7.37,-35.54c6.35,-3.73 11.22,-4.56 18.66,-4.56c1.99,0 3.98,-0.02 6.04,-0.02c2.19,0 4.35,0.02 6.61,0.04c2.32,-0.02 4.64,-0.02 7.02,-0.02c7.81,0 15.62,0.02 23.41,0.04c5.6,0 11.18,0 16.76,0c12.03,0 24.07,0 36.1,0.02c17.42,0.04 34.81,0.06 52.21,0.06c28.25,0 56.47,0.04 84.7,0.08c27.44,0.02 54.86,0.06 82.29,0.08c1.68,0 3.37,0 5.12,0c8.49,0 16.96,0 25.45,0.02c70.35,0.04 140.72,0.1 211.09,0.2c1.44,3.34 2.89,6.69 4.38,10.14c-1.25,1.28 -2.49,2.53 -3.79,3.85c-3.52,3.63 -7.02,7.26 -10.55,10.89c-3.24,3.34 -6.52,6.65 -9.87,9.91c-15.45,15.41 -18.03,29.03 -19.96,49.81c-2.3,8.45 -5.47,11.29 -12.73,16.77c-7.24,1.36 -7.24,1.36 -15.51,1.5c-2.3,0.04 -2.3,0.04 -4.64,0.1c-3.26,0.06 -6.54,0.12 -9.8,0.14c-4.73,0.02 -9.45,0.12 -14.18,0.22c-32.71,0.63 -65.42,-0.81 -98.09,-1.97c0,2.51 0.02,5.03 0.04,7.6c0.18,23.68 0.31,47.38 0.39,71.05c0.04,12.18 0.11,24.35 0.22,36.53c0.09,11.76 0.13,23.5 0.15,35.25c0.02,4.48 0.07,8.96 0.11,13.44c0.07,6.28 0.07,12.57 0.07,18.85c0.04,2.78 0.04,2.78 0.09,5.6c-0.09,14.62 -5.47,23.11 -16.67,33.39c-6.28,5.33 -6.28,5.33 -10.66,5.33c-0.55,1.16 -1.07,2.31 -1.64,3.51c-3.22,5.39 -7,9.02 -11.75,13.38c-2.78,2.59 -2.78,2.59 -5.6,5.21c-3.02,2.76 -3.02,2.76 -6.1,5.57c-2.08,1.93 -4.16,3.85 -6.24,5.78c-5.47,5.05 -10.96,10.1 -16.45,15.14c-5.58,5.13 -11.14,10.26 -16.7,15.37c-9.78,9.04 -19.58,18.06 -29.39,27.08c-2.28,2.09 -2.28,2.09 -4.59,4.24c-1.55,1.34 -3.11,2.7 -4.7,4.1c-6.54,6.47 -8.99,11.86 -8.95,20.7c0,1.68 0,3.39 0,5.13c0.02,1.84 0.04,3.69 0.04,5.6c0.02,1.95 0.02,3.91 0.02,5.92c0,6.47 0.07,12.93 0.11,19.42c0,4.5 0.02,8.98 0.02,13.48c0.02,11.86 0.09,23.72 0.15,35.58c0.09,18.95 0.15,37.91 0.2,56.86c0.02,6.61 0.07,13.24 0.11,19.85c0,4.07 0.02,8.15 0.04,12.22c0,1.82 0.02,3.65 0.04,5.53c0.02,9.81 -0.63,19.08 -2.41,28.75c-6.56,2.03 -6.56,2.03 -12.71,-0.57c-2.67,-1.4 -5.32,-2.82 -7.94,-4.26c-1.49,-0.79 -2.95,-1.58 -4.49,-2.39c-18.51,-9.95 -36.76,-20.35 -55.01,-30.71c-13.92,-7.91 -27.96,-15.61 -42.16,-23.07c-12.45,-6.57 -24.75,-13.36 -37.02,-20.23c-4.77,-2.66 -9.56,-5.33 -14.35,-7.99c-2.41,-1.34 -4.81,-2.7 -7.29,-4.07c-29.41,-16.4 -58.82,-32.76 -88.36,-48.96c-3.74,-2.05 -7.51,-4.12 -11.25,-6.18c-11.33,-6.22 -22.67,-12.43 -34.07,-18.53c-38.6,-20.8 -68.22,-43.24 -81.4,-84.41c-4.86,-21.71 -5.03,-43.28 -5.03,-65.34c0,-3.63 -0.02,-7.26 -0.04,-10.89c-0.02,-9.75 -0.04,-19.52 -0.04,-29.29c0,-6.12 0,-12.24 -0.02,-18.37c-0.04,-21.41 -0.07,-42.82 -0.07,-64.22c0.02,-19.89 -0.04,-39.75 -0.11,-59.62c-0.04,-17.15 -0.07,-34.28 -0.07,-51.43c0,-10.2 -0.02,-20.39 -0.07,-30.59c-0.04,-9.61 -0.04,-19.22 0,-28.81c0,-3.51 -0.02,-6.99 -0.04,-10.5c-0.28,-39.86 7.92,-74.34 38.62,-104.1c11.22,-9.49 23.83,-16.48 36.89,-23.52c3.92,-2.15 7.86,-4.3 11.79,-6.45c11.25,-6.12 22.52,-12.18 33.81,-18.25c8.82,-4.72 17.61,-9.49 26.43,-14.25c22.82,-12.37 45.71,-24.63 68.62,-36.88c22.47,-12 44.88,-24.1 67.28,-36.23c10.92,-5.9 21.84,-11.8 32.76,-17.7c4.35,-2.37 8.71,-4.72 13.06,-7.08c8.95,-4.82 17.9,-9.67 26.85,-14.49c2.25,-1.22 4.51,-2.43 6.8,-3.69c4.46,-2.41 8.91,-4.8 13.37,-7.2c9.82,-5.31 19.63,-10.62 29.32,-16.12c23.19,-13.12 44.72,-22.62 72.27,-24.73z" fill="#21A9FE" id="svg_1"/>
  <path d="m818.85,350.76c9.9,4.38 16.75,9.82 20.87,18.65c3.69,10.82 2.27,19.08 -3.84,29.05c-7.22,7.81 -14.5,11.67 -25.71,14.52c-12.94,0.47 -22.09,-1.96 -32.14,-9.08c-9.68,-9.1 -11.53,-16.09 -11.29,-28.03c1.09,-8.82 5.1,-14.25 12.77,-20.15c12.06,-7.41 25.17,-9.26 39.34,-4.96z" fill="#23AAFE" id="svg_2" transform="matrix(1 0 0 1 0 0)"/>
  <path d="m0,0c2,1 2,1 2,1l-2,-1z" fill="#29A9FB" id="svg_3" transform="translate(673,600)"/>
  <path fill="#2DA3F2" id="svg_4" transform="translate(0,0)"/>
  <path fill="#2E9CEA" id="svg_5" transform="translate(0,0)"/>
  <path fill="#2EA1EF" id="svg_6" transform="translate(0,0)"/>
  <path fill="#2DA2EF" id="svg_7" transform="translate(0,0)"/>
  <path fill="#2FA3F3" id="svg_8" transform="translate(0,0)"/>
  <path fill="#2DA4F9" id="svg_9" transform="translate(0,0)"/>
  <path fill="#2CA3F6" id="svg_10" transform="translate(0,0)"/>
  <path fill="#2DA7F8" id="svg_11" transform="translate(0,0)"/>
  <path fill="#2EAAFD" id="svg_12" transform="translate(0,0)"/>
  <path fill="#2EA2F6" id="svg_13" transform="translate(0,0)"/>
  <path fill="#2CA3F3" id="svg_14" transform="translate(0,0)"/>
  <path fill="#2AA3F4" id="svg_15" transform="translate(0,0)"/>
  <path fill="#2EADFE" id="svg_16" transform="translate(0,0)"/>
  <path fill="#2DA4F3" id="svg_17" transform="translate(0,0)"/>
  <path fill="#2DAAFB" id="svg_18" transform="translate(0,0)"/>
  <path fill="#29AEFF" id="svg_19" transform="translate(0,0)"/>
  <path fill="#2EA2F1" id="svg_20" transform="translate(0,0)"/>
  <path fill="#2EA3F1" id="svg_21" transform="translate(0,0)"/>
  <path fill="#28ACFB" id="svg_22" transform="translate(0,0)"/>
  <path fill="#29A3F4" id="svg_23" transform="translate(0,0)"/>
  <path fill="#2BA5F4" id="svg_24" transform="translate(0,0)"/>
  <path fill="#2BABFF" id="svg_25" transform="translate(0,0)"/>
  <path fill="#2BA9FE" id="svg_26" transform="translate(0,0)"/>
  <path fill="#2AA3F3" id="svg_27" transform="translate(0,0)"/>
 </g>
</svg>